<mxfile host="app.diagrams.net" modified="2021-02-05T09:43:13.228Z" agent="5.0 (X11)" etag="Tgo5XGwXiCtiHZo7yqsr" version="14.2.9" type="github">
  <diagram id="gM2QVkJXPV7dgoxVaOxa" name="LaOca">
    <mxGraphModel dx="796" dy="492" grid="1" gridSize="10" guides="1" tooltips="1" connect="1" arrows="1" fold="1" page="1" pageScale="1" pageWidth="1654" pageHeight="1169" math="0" shadow="0">
      <root>
        <mxCell id="th0jC6jkKCoZC_Moq8nz-0" />
        <mxCell id="th0jC6jkKCoZC_Moq8nz-1" parent="th0jC6jkKCoZC_Moq8nz-0" />
        <mxCell id="lphoJgTMi3brXADvJATr-0" value="&lt;p style=&quot;margin: 0px ; margin-top: 4px ; text-align: center&quot;&gt;&lt;i&gt;&amp;lt;&amp;lt;Enum&amp;gt;&amp;gt;&lt;/i&gt;&lt;br&gt;&lt;b&gt;TipoCasilla&lt;/b&gt;&lt;/p&gt;&lt;hr size=&quot;1&quot;&gt;&lt;p style=&quot;margin: 0px ; margin-left: 4px&quot;&gt;NORMAL&lt;/p&gt;&lt;p style=&quot;margin: 0px ; margin-left: 4px&quot;&gt;OCA&lt;/p&gt;&lt;p style=&quot;margin: 0px ; margin-left: 4px&quot;&gt;PUENTE&lt;/p&gt;&lt;p style=&quot;margin: 0px ; margin-left: 4px&quot;&gt;POSADA&lt;/p&gt;&lt;p style=&quot;margin: 0px ; margin-left: 4px&quot;&gt;POZO&lt;/p&gt;&lt;p style=&quot;margin: 0px ; margin-left: 4px&quot;&gt;LABERINTO&lt;/p&gt;&lt;p style=&quot;margin: 0px ; margin-left: 4px&quot;&gt;CARCEL&lt;/p&gt;&lt;p style=&quot;margin: 0px ; margin-left: 4px&quot;&gt;DADOS&lt;/p&gt;&lt;p style=&quot;margin: 0px ; margin-left: 4px&quot;&gt;CALAVERA&lt;/p&gt;&lt;hr size=&quot;1&quot;&gt;&lt;p style=&quot;margin: 0px ; margin-left: 4px&quot;&gt;- nombre: String&lt;br&gt;- ordenaMovimiento: boolean&lt;/p&gt;&lt;p style=&quot;margin: 0px ; margin-left: 4px&quot;&gt;- tiradaExtra: boolean&lt;/p&gt;&lt;p style=&quot;margin: 0px ; margin-left: 4px&quot;&gt;- penalizacion: int&lt;/p&gt;&lt;p style=&quot;margin: 0px ; margin-left: 4px&quot;&gt;- texto: String&lt;br&gt;&lt;/p&gt;" style="verticalAlign=top;align=left;overflow=fill;fontSize=12;fontFamily=Helvetica;html=1;sketch=0;glass=0;direction=west;noLabel=0;portConstraintRotation=0;perimeter=rectanglePerimeter;container=0;dropTarget=0;rounded=0;" vertex="1" parent="th0jC6jkKCoZC_Moq8nz-1">
          <mxGeometry x="310" y="190" width="190" height="270" as="geometry" />
        </mxCell>
        <mxCell id="lphoJgTMi3brXADvJATr-4" value="&lt;p style=&quot;margin: 0px ; margin-top: 4px ; text-align: center&quot;&gt;&lt;b&gt;Casilla&lt;/b&gt;&lt;/p&gt;&lt;hr size=&quot;1&quot;&gt;&lt;div&gt;&amp;nbsp;- numero: int&lt;/div&gt;&lt;div&gt;&amp;nbsp;- tipoCasilla: TipoCasilla&lt;/div&gt;&lt;div&gt;&amp;nbsp;- movimientoOrden: int&lt;br&gt;&lt;/div&gt;&lt;div&gt;&lt;div&gt;&amp;nbsp;- cantidadJugadores: int&lt;br&gt;&lt;/div&gt;&amp;nbsp;- posicionRelativa: Point&lt;/div&gt;&lt;hr size=&quot;1&quot;&gt;&lt;p style=&quot;margin: 0px ; margin-left: 4px&quot;&gt;+ calculaMovimientoOrden(): void&lt;/p&gt;&lt;p style=&quot;margin: 0px ; margin-left: 4px&quot;&gt;+ calculaPosicionRelativa(): void&lt;br&gt;&lt;/p&gt;" style="verticalAlign=top;align=left;overflow=fill;fontSize=12;fontFamily=Helvetica;html=1;rounded=0;glass=0;sketch=0;" vertex="1" parent="th0jC6jkKCoZC_Moq8nz-1">
          <mxGeometry x="310" y="480" width="190" height="150" as="geometry" />
        </mxCell>
        <mxCell id="lphoJgTMi3brXADvJATr-5" value="&lt;p style=&quot;margin: 0px ; margin-top: 4px ; text-align: center&quot;&gt;&lt;b&gt;Jugador&lt;/b&gt;&lt;/p&gt;&lt;hr size=&quot;1&quot;&gt;&lt;div&gt;&amp;nbsp;- nombre: String&lt;br&gt;&lt;/div&gt;&lt;div&gt;&amp;nbsp;- posicion: int&lt;br&gt;&lt;/div&gt;&lt;div&gt;&amp;nbsp;- penalizacion: int&lt;br&gt;&lt;/div&gt;&lt;div&gt;&lt;div&gt;&amp;nbsp;- ultimaPosicion: int&lt;br&gt;&lt;/div&gt;&amp;nbsp;- tirada: int&lt;br&gt;&lt;/div&gt;&lt;hr size=&quot;1&quot;&gt;&lt;p style=&quot;margin: 0px ; margin-left: 4px&quot;&gt;+ tiraDado(): int&lt;br&gt;&lt;/p&gt;" style="verticalAlign=top;align=left;overflow=fill;fontSize=12;fontFamily=Helvetica;html=1;rounded=0;glass=0;sketch=0;" vertex="1" parent="th0jC6jkKCoZC_Moq8nz-1">
          <mxGeometry x="520" y="190" width="190" height="140" as="geometry" />
        </mxCell>
        <mxCell id="lphoJgTMi3brXADvJATr-6" value="&lt;p style=&quot;margin: 0px ; margin-top: 4px ; text-align: center&quot;&gt;&lt;b&gt;ListaJugadores&lt;/b&gt;&lt;/p&gt;&lt;hr size=&quot;1&quot;&gt;&lt;div&gt;&amp;nbsp;- jugadores: ArrayList&amp;lt;Jugador&amp;gt;&lt;br&gt;&lt;/div&gt;&lt;hr size=&quot;1&quot;&gt;&lt;p style=&quot;margin: 0px ; margin-left: 4px&quot;&gt;+ tiraDado(): int&lt;br&gt;&lt;/p&gt;" style="verticalAlign=top;align=left;overflow=fill;fontSize=12;fontFamily=Helvetica;html=1;rounded=0;glass=0;sketch=0;" vertex="1" parent="th0jC6jkKCoZC_Moq8nz-1">
          <mxGeometry x="520" y="350" width="190" height="140" as="geometry" />
        </mxCell>
      </root>
    </mxGraphModel>
  </diagram>
</mxfile>
